<svg id="Layer_1" data-name="Layer 1" xmlns="http://www.w3.org/2000/svg" viewBox="0 0 84.71 73.38"><defs><style>.cls-1,.cls-3,.cls-4{fill:none;stroke:#00a79d;stroke-miterlimit:10;}.cls-1{stroke-width:5px;}.cls-2{opacity:0.54;}.cls-3,.cls-4{stroke-width:2px;}.cls-4{stroke-dasharray:5.45 5.45;}</style></defs><title>logo_ws</title><path class="cls-1" d="M15.78,4.81a15.65,15.65,0,0,0-3.45,5.13C10.4,14.32,9.75,19.77,12,22.73,17,29.2,31.85,35,47.56,24.39c5.08,4.94,7.51,6.7,14,7.39,2.63,0.28,12.65,1.35,18.6-6,4-6.16,5.23-11.55,3.93-15.86" transform="translate(-2.33 -2.97)"/><g class="cls-2"><line class="cls-3" x1="17.48" y1="32.05" x2="16.36" y2="34.83"/><line class="cls-4" x1="14.31" y1="39.89" x2="3.07" y2="67.69"/><line class="cls-3" x1="2.05" y1="70.22" x2="0.93" y2="73"/></g><g class="cls-2"><line class="cls-3" x1="34.06" y1="32.05" x2="32.93" y2="34.83"/><line class="cls-4" x1="30.89" y1="39.89" x2="19.65" y2="67.69"/><line class="cls-3" x1="18.63" y1="70.22" x2="17.5" y2="73"/></g><g class="cls-2"><line class="cls-3" x1="51.46" y1="32.05" x2="50.34" y2="34.83"/><line class="cls-4" x1="48.3" y1="39.89" x2="37.06" y2="67.69"/><line class="cls-3" x1="36.03" y1="70.22" x2="34.91" y2="73"/></g><g class="cls-2"><line class="cls-3" x1="68.87" y1="32.05" x2="67.74" y2="34.83"/><line class="cls-4" x1="65.7" y1="39.89" x2="54.46" y2="67.69"/><line class="cls-3" x1="53.44" y1="70.22" x2="52.32" y2="73"/></g></svg>